<svg width="26" height="28" viewBox="0 0 26 28" fill="none" xmlns="http://www.w3.org/2000/svg">
<path d="M21.061 13.718C21.061 13.718 21.6468 12.6696 22.7798 12.2994C22.7798 12.2994 22.8873 13.4278 21.5309 14.3785L21.061 13.718Z" fill="#FF5569"/>
<path d="M21.4869 13.9899C21.4869 13.9899 22.6464 13.6793 23.7014 14.2365C23.7014 14.2365 22.9678 15.0993 21.3407 14.7891L21.4869 13.9921L21.4869 13.9899Z" fill="#FF5569"/>
<path d="M22.0513 14.7252C22.0513 14.7252 22.6651 14.7808 23.0755 15.2359C23.0755 15.2359 22.5674 15.5226 21.8391 15.0827L22.0513 14.7229L22.0513 14.7252Z" fill="#FF5569"/>
<path d="M4.74186 13.7072C4.74186 13.7072 4.15742 12.658 3.02494 12.2863C3.02494 12.2863 2.91599 13.4145 4.2711 14.3671L4.74186 13.7072Z" fill="#FF5569"/>
<path d="M4.31564 13.9783C4.31564 13.9783 3.15661 13.6662 2.10079 14.222C2.10079 14.222 2.83329 15.0858 4.46084 14.7778L4.31564 13.9806L4.31564 13.9783Z" fill="#FF5569"/>
<path d="M3.74664 14.713C3.74664 14.713 3.13277 14.7678 2.72177 15.2224C2.72177 15.2224 3.22943 15.5098 3.95838 15.0708L3.74665 14.7108L3.74664 14.713Z" fill="#FF5569"/>
<path d="M4.19408 14.3429C4.19408 14.3429 2.93952 11.6018 3.63016 5.68911C3.67013 5.35131 3.99708 5.12409 4.32823 5.20601C5.59103 5.51819 8.52269 6.49169 10.6429 9.12732L4.19407 14.3451L4.19408 14.3429Z" fill="#FF5569"/>
<path d="M21.6125 14.3546C21.6125 14.3546 22.8707 11.6152 22.1879 5.70161C22.1484 5.36375 21.8218 5.1361 21.4905 5.21758C20.2273 5.52807 17.2944 6.49766 15.1707 9.13046L21.6125 14.3568L21.6125 14.3546Z" fill="#FF5569"/>
<path d="M20.6921 12.2895C20.6921 12.2895 21.4439 10.6538 21.0356 7.12063C21.0114 6.91969 20.8172 6.78266 20.6185 6.8311C19.8632 7.01607 18.1118 7.59563 16.8455 9.16692L20.6921 12.2873L20.6921 12.2895Z" fill="#FBE9D9"/>
<path d="M5.04078 12.2786C5.04078 12.2786 4.29113 10.642 4.70419 7.10935C4.72861 6.90844 4.92301 6.77167 5.1217 6.82038C5.87673 7.00636 7.62734 7.58824 8.89151 9.16122L5.04078 12.2764L5.04078 12.2786Z" fill="#FBE9D9"/>
<path d="M4.21006 6.78435L4.30759 6.22798L4.93223 6.57948L4.93259 6.04513L5.69198 6.32385L5.57744 5.89762L6.88003 6.148C5.83817 5.63062 4.90656 5.34516 4.32594 5.20125C3.99478 5.11933 3.66784 5.34654 3.62787 5.68435C3.5457 6.39308 3.49005 7.05546 3.45873 7.6737L3.83251 6.74656L4.20786 6.78214L4.21006 6.78435Z" fill="#443C35"/>
<path d="M21.6033 6.79619L21.5065 6.2397L20.8814 6.59036L20.8818 6.05601L20.122 6.33372L20.2371 5.90764L18.9342 6.15629C19.9767 5.6403 20.9087 5.35608 21.4895 5.21294C21.8208 5.13146 22.1474 5.35911 22.187 5.69697C22.2682 6.40581 22.3229 7.06827 22.3534 7.68654L21.9809 6.75891L21.6055 6.79399L21.6033 6.79619Z" fill="#443C35"/>
<path d="M21.532 13.5879C19.0854 7.04171 12.9096 7.03759 12.9096 7.03759C12.9096 7.03759 6.73379 7.03348 4.27853 13.5764C1.82327 20.1193 1.55546 21.0929 0.311873 21.7964C0.311873 21.7964 0.341699 26.738 12.8962 27.1835C25.449 26.7547 25.4877 21.8132 25.4877 21.8132C24.2472 21.108 23.9785 20.1341 21.532 13.5879V13.5879Z" fill="#FF5569"/>
<path d="M25.4858 21.8132C25.4858 21.8132 23.8205 22.5297 21.2528 22.1526C18.4357 21.7378 17.2227 19.6107 12.9015 19.6586C8.57828 19.6049 7.36246 21.7304 4.54696 22.1415C1.97879 22.5151 0.314426 21.7964 0.314426 21.7964C0.314426 21.7964 0.344157 26.8793 12.8986 27.3248C25.4515 26.896 25.4902 21.8132 25.4902 21.8132L25.4858 21.8132Z" fill="#FBE9D9"/>
<path d="M10.4873 14.3312C10.4873 14.3312 9.69674 14.4145 8.94594 14.5024C8.12889 14.599 7.56828 14.2409 7.61276 13.7662C7.65946 13.2694 8.38168 13.0027 9.19638 13.1159C10.2915 13.269 10.4851 14.329 10.4851 14.329L10.4873 14.3312Z" fill="#443C35"/>
<path d="M15.3228 14.3346C15.3228 14.3346 16.1133 14.4191 16.864 14.5079C17.6809 14.6056 18.242 14.2482 18.1981 13.7735C18.1521 13.2766 17.4302 13.009 16.6154 13.121C15.5201 13.2727 15.3251 14.3324 15.3251 14.3324L15.3228 14.3346Z" fill="#443C35"/>
<path d="M8.43479 21.281C9.38964 21.2816 10.1643 20.4251 10.165 19.3678C10.1657 18.3105 9.3922 17.4529 8.43735 17.4522C7.48249 17.4516 6.70786 18.3082 6.70716 19.3655C6.70645 20.4228 7.47994 21.2804 8.43479 21.281Z" fill="#443C35"/>
<path d="M9.10658 19.6149C9.42002 19.5469 9.60185 19.1585 9.51272 18.7473C9.42358 18.3362 9.09723 18.0579 8.78378 18.1259C8.47034 18.1938 8.28851 18.5822 8.37764 18.9934C8.46678 19.4046 8.79313 19.6828 9.10658 19.6149Z" fill="white"/>
<g opacity="0.35">
<path d="M8.10665 20.6323C8.23668 20.5294 8.21383 20.2839 8.05561 20.0841C7.8974 19.8843 7.66374 19.8058 7.53371 19.9087C7.40369 20.0117 7.42654 20.2571 7.58475 20.4569C7.74296 20.6567 7.97663 20.7353 8.10665 20.6323Z" fill="white"/>
</g>
<path d="M17.3645 21.2866C18.3193 21.2873 19.094 20.4307 19.0947 19.3734C19.0954 18.3161 18.3219 17.4585 17.367 17.4578C16.4122 17.4572 15.6376 18.3138 15.6368 19.3711C15.6361 20.4284 16.4096 21.286 17.3645 21.2866Z" fill="#443C35"/>
<path d="M17.4257 18.9998C17.5154 18.5888 17.334 18.2001 17.0207 18.1318C16.7073 18.0634 16.3806 18.3412 16.2909 18.7522C16.2012 19.1633 16.3826 19.5519 16.6959 19.6203C17.0093 19.6887 17.336 19.4109 17.4257 18.9998Z" fill="white"/>
<g opacity="0.35">
<path d="M18.2158 20.469C18.3742 20.2694 18.3974 20.0239 18.2675 19.9208C18.1376 19.8177 17.9039 19.8959 17.7454 20.0955C17.5869 20.2951 17.5637 20.5405 17.6936 20.6437C17.8235 20.7468 18.0573 20.6686 18.2158 20.469Z" fill="white"/>
</g>
<path d="M14.2347 20.45C14.2344 20.8165 13.2162 21.2839 12.9225 21.2838C12.6289 21.2836 11.7437 20.8502 11.6115 20.4482C11.4925 20.086 11.9432 19.7838 12.9235 19.7845C13.9039 19.7851 14.2349 20.0834 14.2347 20.45Z" fill="#443C35"/>
<path d="M10.9077 22.4304L14.8844 22.433L14.8838 23.2147C14.8831 24.3121 13.9927 25.2014 12.8953 25.2006C11.7979 25.1999 10.9086 24.3095 10.9093 23.212L10.9099 22.4304L10.9077 22.4304Z" fill="#FA697D"/>
<path d="M12.8982 23.5488C12.174 23.5483 11.5379 23.7599 11.1182 24.082C11.4401 24.7424 12.1133 25.2021 12.8971 25.2026C13.681 25.2032 14.3547 24.7443 14.6776 24.0843C14.2582 23.7595 13.6225 23.5493 12.8982 23.5488V23.5488Z" fill="#FC9EA7"/>
<path d="M12.8944 22.8555C13.8792 22.8562 14.6786 22.6712 14.7781 22.4328L11.0112 22.4303C11.1104 22.6689 11.9096 22.8549 12.8944 22.8555Z" fill="white"/>
<path d="M12.9032 17.7552C12.2507 19.4683 10.7578 19.8382 10.7578 19.8382L12.902 19.6586L15.0459 19.8411C15.0459 19.8411 13.5535 19.4691 12.9032 17.7552V17.7552Z" fill="#FFF3E9"/>
<path d="M12.385 7.8675C12.385 7.8675 11.1096 6.63014 11.1305 5.00723C11.1305 5.00723 12.8769 5.39922 13.6151 7.57465L12.385 7.86529L12.385 7.8675Z" fill="#FF5569"/>
<path d="M13.012 7.13708C13.012 7.13708 13.2158 6.05085 14.0973 5.39565C14.0973 5.39565 14.5228 6.34981 13.6167 7.57689L13.012 7.13929L13.012 7.13708Z" fill="#FF5569"/>
<path d="M24.4972 22.6475C24.4972 22.6475 25.2857 22.3544 25.7649 22.3017C25.7958 22.2973 25.8178 22.3326 25.8002 22.3591C25.7029 22.5202 25.3427 23.0168 24.1075 24.2238L24.4972 22.6475V22.6475Z" fill="#FBE9D9"/>
<path d="M24.3765 20.9403C24.4957 21.0177 25.1137 21.4089 25.4228 21.4555C25.436 21.4555 25.436 21.4754 25.4227 21.4798C25.3035 21.5216 25.0296 21.6341 24.7733 21.8635C24.4596 22.1438 24.3697 21.128 24.3588 20.9513C24.3588 20.9403 24.3699 20.9337 24.3787 20.9403L24.3765 20.9403Z" fill="#FF5569"/>
<path d="M1.31216 22.632C1.31216 22.632 0.52408 22.3378 0.0449665 22.2845C0.0140567 22.2801 -0.00804744 22.3154 0.00959937 22.3419C0.106647 22.5031 0.466229 23.0002 1.69973 24.2088L1.31216 22.632V22.632Z" fill="#FBE9D9"/>
<path d="M1.43491 20.9251C1.31562 21.0023 0.697108 21.3927 0.387949 21.4389C0.3747 21.4389 0.374687 21.4588 0.387932 21.4632C0.50714 21.5052 0.780864 21.618 1.03685 21.8478C1.3502 22.1285 1.44141 21.1128 1.45257 20.9362C1.45258 20.9251 1.44154 20.9185 1.4327 20.9251L1.43491 20.9251Z" fill="#FF5569"/>
<path d="M9.04737 7.21402C8.84892 6.92874 7.93109 5.25433 7.93109 5.25433C7.93109 5.25433 8.51404 5.06828 8.60086 4.82022C8.70008 4.57215 8.7621 4.20006 8.7621 4.20006C9.12179 4.57215 9.48148 4.7582 9.64272 4.68378C9.77915 4.63417 9.82877 4.54735 9.82877 4.54735C9.84117 4.53495 9.84117 4.52254 9.90318 4.38611C9.94039 4.29929 9.9528 4.26208 9.9528 4.24967C9.9652 4.22487 9.9652 4.18766 9.9776 4.01402C9.9776 4.01402 9.9776 3.88998 9.9776 3.74115C9.9776 3.74115 10.0768 3.81557 10.1512 3.84037C10.2257 3.86518 10.697 3.81557 10.7342 3.79076C10.7714 3.76595 11.1435 3.50549 11.1683 3.43107C11.1931 3.35665 11.1931 3.29464 11.1931 3.29464C11.1931 3.29464 11.2675 3.44347 11.3171 3.48068C11.3668 3.51789 11.6396 3.57991 11.7264 3.5551C11.8009 3.53029 12.3838 2.42642 12.3838 2.42642C12.3838 2.42642 12.8179 2.60006 12.8799 2.60006C12.9419 2.60006 13.2024 2.57526 13.252 2.53805C13.3016 2.50084 13.4257 2.42642 13.4257 2.42642C13.4257 2.42642 13.897 3.41867 13.959 3.48068C14.021 3.5427 14.2071 3.57991 14.2691 3.57991C14.3311 3.57991 14.5916 3.40626 14.5916 3.40626C14.5916 3.40626 15.0257 3.79076 15.1621 3.81557C15.2985 3.84037 15.4722 3.87758 15.5466 3.86518C15.6086 3.85278 15.8567 3.76595 15.8567 3.79076C15.8443 3.81557 15.9187 4.3489 15.9807 4.39851C16.0427 4.46053 16.1171 4.55975 16.1916 4.55975C16.266 4.55975 17.0846 4.22487 17.0846 4.22487C17.0846 4.22487 17.0474 4.46053 17.0846 4.53495C17.1218 4.60936 17.5063 5.10549 17.5807 5.13029C17.6427 5.1551 17.9032 5.22952 17.9032 5.22952L16.7373 7.23882L9.04737 7.21402Z" fill="#FFA325"/>
<path d="M9.20753 7.52407C9.00908 7.2388 8.09125 5.56438 8.09125 5.56438C8.09125 5.56438 8.67419 5.37834 8.76101 5.13028C8.86024 4.88221 8.92226 4.51012 8.92226 4.51012C9.28195 4.88221 9.64164 5.06826 9.80288 4.99384C9.93931 4.94423 9.98892 4.85741 9.98892 4.85741C10.0013 4.845 10.0013 4.8326 10.0633 4.69617C10.1005 4.60935 10.113 4.57214 10.113 4.55973C10.1254 4.53493 10.1254 4.49772 10.1378 4.32407C10.1378 4.32407 10.1378 4.20004 10.1378 4.05121C10.1378 4.05121 10.237 4.12562 10.3114 4.15043C10.3858 4.17524 10.8571 4.12562 10.8943 4.10082C10.9316 4.07601 11.3037 3.81555 11.3285 3.74113C11.3533 3.66671 11.3533 3.60469 11.3533 3.60469C11.3533 3.60469 11.4277 3.75353 11.4773 3.79074C11.5145 3.82795 11.7998 3.88997 11.8866 3.86516C11.961 3.84035 12.544 2.73648 12.544 2.73648C12.544 2.73648 12.9781 2.91012 13.0401 2.91012C13.1021 2.91012 13.3626 2.88531 13.4122 2.8481C13.4494 2.8109 13.5734 2.73648 13.5734 2.73648C13.5734 2.73648 14.0447 3.72873 14.1068 3.79074C14.1688 3.85276 14.3548 3.88997 14.4168 3.88997C14.4788 3.88997 14.7393 3.71632 14.7393 3.71632C14.7393 3.71632 15.1734 4.10082 15.3099 4.12562C15.4463 4.15043 15.6199 4.18764 15.6943 4.17524C15.7564 4.16283 16.0044 4.07601 16.0044 4.10082C15.992 4.12562 16.0664 4.65896 16.1285 4.70857C16.1905 4.77059 16.2649 4.86981 16.3393 4.86981C16.4137 4.86981 17.2323 4.53493 17.2323 4.53493C17.2323 4.53493 17.1951 4.77059 17.2323 4.845C17.2695 4.91942 17.654 5.41555 17.7285 5.44035C17.7905 5.46516 18.0509 5.53958 18.0509 5.53958L16.885 7.54888L9.20753 7.52407Z" fill="#FFB42F"/>
<path d="M8.02891 5.60148C8.59746 5.60148 9.05837 5.14058 9.05837 4.57202C9.05837 4.00347 8.59746 3.54257 8.02891 3.54257C7.46035 3.54257 6.99945 4.00347 6.99945 4.57202C6.99945 5.14058 7.46035 5.60148 8.02891 5.60148Z" fill="#FFC338"/>
<path d="M7.87961 4.65889C7.55713 4.7209 7.24705 4.63408 7.02379 4.44803C6.99899 4.57206 6.99899 4.6961 7.02379 4.82013C7.12302 5.37827 7.66875 5.75036 8.2393 5.63873C8.80984 5.53951 9.18193 4.99377 9.08271 4.43563C9.03309 4.18757 8.90906 3.97672 8.72302 3.82788C8.6362 4.24958 8.31372 4.58447 7.87961 4.65889Z" fill="#FFB02D"/>
<path d="M10.6108 4.12545C11.1793 4.12545 11.6402 3.66455 11.6402 3.096C11.6402 2.52744 11.1793 2.06654 10.6108 2.06654C10.0422 2.06654 9.5813 2.52744 9.5813 3.096C9.5813 3.66455 10.0422 4.12545 10.6108 4.12545Z" fill="#FFC338"/>
<path d="M10.45 3.18281C10.1275 3.24482 9.81742 3.158 9.59417 2.95955C9.56936 3.08358 9.56936 3.20761 9.59417 3.33165C9.69339 3.88978 10.2391 4.26188 10.8097 4.15025C11.3802 4.05103 11.7523 3.50529 11.6531 2.94715C11.6035 2.69909 11.4794 2.48823 11.2934 2.3394C11.219 2.77351 10.8841 3.10839 10.45 3.18281Z" fill="#FFB02D"/>
<path d="M13.0643 3.05882C13.6329 3.05882 14.0938 2.59792 14.0938 2.02936C14.0938 1.46081 13.6329 0.999905 13.0643 0.999905C12.4958 0.999905 12.0349 1.46081 12.0349 2.02936C12.0349 2.59792 12.4958 3.05882 13.0643 3.05882Z" fill="#FFC338"/>
<path d="M12.9153 2.12857C12.5928 2.19058 12.2827 2.10376 12.0594 1.90531C12.0346 2.02934 12.0346 2.15337 12.0594 2.27741C12.1587 2.83554 12.7044 3.20764 13.2749 3.09601C13.8455 2.99679 14.2176 2.45105 14.1184 1.89291C14.0687 1.64485 13.9447 1.43399 13.7587 1.28516C13.6718 1.70686 13.3494 2.04175 12.9153 2.12857Z" fill="#FFB02D"/>
<path d="M15.5191 4.27415C16.0877 4.27415 16.5486 3.81325 16.5486 3.24469C16.5486 2.67614 16.0877 2.21524 15.5191 2.21524C14.9506 2.21524 14.4897 2.67614 14.4897 3.24469C14.4897 3.81325 14.9506 4.27415 15.5191 4.27415Z" fill="#FFC338"/>
<path d="M15.3698 3.3439C15.0474 3.40592 14.7373 3.31909 14.514 3.12064C14.4892 3.24468 14.4892 3.36871 14.514 3.49274C14.6133 4.05088 15.159 4.42297 15.7295 4.31134C16.3001 4.21212 16.6722 3.66638 16.5729 3.10824C16.5233 2.86018 16.3993 2.64933 16.2133 2.50049C16.1388 2.92219 15.8039 3.25708 15.3698 3.3439Z" fill="#FFB02D"/>
<path d="M17.8512 5.56419C18.4197 5.56419 18.8806 5.10329 18.8806 4.53473C18.8806 3.96618 18.4197 3.50528 17.8512 3.50528C17.2826 3.50528 16.8217 3.96618 16.8217 4.53473C16.8217 5.10329 17.2826 5.56419 17.8512 5.56419Z" fill="#FFC338"/>
<path d="M17.7019 4.63394C17.3794 4.69595 17.0693 4.60913 16.8461 4.41068C16.8213 4.53471 16.8213 4.65875 16.8461 4.78278C16.9453 5.34092 17.491 5.71301 18.0616 5.60138C18.6321 5.50216 19.0042 4.95642 18.905 4.39828C18.8554 4.15022 18.7313 3.93937 18.5453 3.79053C18.4585 4.21223 18.136 4.54712 17.7019 4.63394Z" fill="#FFB02D"/>
<path d="M17.2315 7.98289L9.00828 7.98289C8.66099 7.98289 8.38812 7.69762 8.38812 7.36274C8.38812 7.01545 8.67339 6.74258 9.00828 6.74258L17.2315 6.74258C17.5788 6.74258 17.8517 7.02785 17.8517 7.36274C17.8517 7.69762 17.5788 7.98289 17.2315 7.98289Z" fill="#FFC338"/>
<path d="M17.2315 8.99998L9.00828 8.99998C8.66099 8.99998 8.38812 8.71471 8.38812 8.37983C8.38812 8.03254 8.67339 7.75967 9.00828 7.75967L17.2315 7.75967C17.5788 7.75967 17.8517 8.04494 17.8517 8.37983C17.8517 8.72711 17.5788 8.99998 17.2315 8.99998Z" fill="#FFAE2C"/>
<path d="M12.1265 4.75781C12.4614 4.26168 12.7839 3.76556 13.1188 3.26944L13.1436 4.83223C12.7963 4.81982 12.4366 4.80742 12.0893 4.80742C12.1017 4.79502 12.1141 4.77021 12.1265 4.75781Z" fill="#FFC338"/>
<path d="M14.1247 4.74541C13.7898 4.24928 13.455 3.76556 13.1201 3.26944L13.0953 4.83223C13.455 4.81982 13.8147 4.81982 14.1743 4.80742C14.1495 4.79502 14.1371 4.77021 14.1247 4.74541Z" fill="#FFC338"/>
<path d="M12.0893 4.80752C12.4242 4.81992 12.7591 4.83233 13.0939 4.83233C13.0939 5.35326 13.0939 5.87419 13.0939 6.39512L12.0893 4.80752Z" fill="#FFC338"/>
<path d="M14.1742 4.80752C13.8145 4.80752 13.4548 4.81992 13.0952 4.81992C13.0952 5.34085 13.0952 5.87419 13.0952 6.39512C13.4548 5.87419 13.8145 5.34086 14.1742 4.80752Z" fill="#FFC338"/>
<path d="M12.3179 4.80755C12.5908 4.38584 12.876 3.97654 13.1489 3.55484L13.1737 4.86956C12.876 4.85716 12.5784 4.85716 12.2807 4.84476C12.2931 4.83236 12.3055 4.81995 12.3179 4.80755Z" fill="#FE683D"/>
<path d="M13.9907 4.79515C13.7054 4.38584 13.4326 3.96414 13.1473 3.55484L13.1225 4.86956C13.4202 4.85716 13.7302 4.85716 14.0279 4.84476C14.0155 4.83236 14.0031 4.81995 13.9907 4.79515Z" fill="#FB4E2C"/>
<path d="M12.2807 4.84476C12.566 4.85716 12.8388 4.85716 13.1241 4.86957C13.1241 5.30367 13.1241 5.75019 13.1241 6.18429L12.2807 4.84476Z" fill="#FB4427"/>
<path d="M14.0279 4.84488C13.7302 4.84488 13.4202 4.85728 13.1225 4.85728C13.1225 5.30379 13.1225 5.7379 13.1225 6.18441C13.4202 5.7379 13.7178 5.29139 14.0279 4.84488Z" fill="#FB4427"/>
</svg>
